<?xml version="1.0" encoding="UTF-8"?>
<svg width="135px" height="172px" viewBox="0 0 135 172" version="1.1" xmlns="http://www.w3.org/2000/svg" xmlns:xlink="http://www.w3.org/1999/xlink">
    <!-- Generator: Sketch 52.4 (67378) - http://www.bohemiancoding.com/sketch -->
    <title>Combined Shape</title>
    <desc>Created with Sketch.</desc>
    <g id="Symbols" stroke="none" stroke-width="1" fill="none" fill-rule="evenodd">
        <g id="document-link/color" transform="translate(-19.000000, 0.000000)" fill="#FFFFFF" fill-rule="nonzero">
            <g id="document" transform="translate(19.000000, 0.000000)">
                <path d="M134.641,134.953 L134.641,153.178 C134.641,163.244 126.482,171.403 116.421,171.403 L18.453,171.403 C8.387,171.403 0.228,163.244 0.228,153.178 L0.228,18.763 C0.228,8.697 8.385,0.538 18.453,0.538 L116.42,0.538 C126.486,0.538 134.643,8.697 134.64,18.766 C134.641,18.766 134.641,36.988 134.641,36.988 L134.641,134.953 Z M20.751,34.418 L20.751,44.792 L114.12,44.792 L114.12,34.418 L20.751,34.418 Z M20.751,57.433 L20.751,67.807 L114.12,67.807 L114.12,57.433 L20.751,57.433 Z M20.751,80.444 L20.751,90.818 L114.12,90.818 L114.12,80.444 L20.751,80.444 Z M20.751,103.456 L20.751,113.83 L114.12,113.83 L114.12,103.456 L20.751,103.456 Z M20.751,127.792 L20.751,138.166 L114.12,138.166 L114.12,127.792 L20.751,127.792 Z" id="Combined-Shape"></path>
            </g>
        </g>
    </g>
</svg>