<?xml version="1.0" encoding="UTF-8"?>
<svg width="180px" height="130px" viewBox="0 0 180 130" version="1.1" xmlns="http://www.w3.org/2000/svg" xmlns:xlink="http://www.w3.org/1999/xlink">
    <!-- Generator: Sketch 52.4 (67378) - http://www.bohemiancoding.com/sketch -->
    <title>logo-GMA</title>
    <desc>Created with Sketch.</desc>
    <defs>
        <polygon id="path-1" points="0 0.0783517249 98.7198536 0.0783517249 98.7198536 119.477807 0 119.477807"></polygon>
        <polygon id="path-3" points="0 129.995587 179.769301 129.995587 179.769301 0 0 0"></polygon>
    </defs>
    <g id="UX-UI" stroke="none" stroke-width="1" fill="none" fill-rule="evenodd">
        <g id="GMA-OnlineMap-UI-Dt-0000-Login" transform="translate(-630.000000, -142.000000)">
            <g id="logo-GMA" transform="translate(630.000000, 142.000000)">
                <g id="Group-35">
                    <path d="M19.5574253,38.1887389 C19.0943251,37.9131253 18.6288431,37.6419243 18.1490699,37.3751358 C18.4536068,37.7542742 18.7744764,38.1619243 19.1011304,38.5834909 C26.4457429,48.0178251 39.6531153,67.5347963 41.4354216,87.8147963 C46.7717921,74.1264413 47.379845,52.2273812 45.1919433,37.9572507 C45.0561777,37.0873029 44.9166692,36.2350052 44.760828,35.4268329 C41.9757618,40.1624987 40.6953459,42.1596789 37.8878223,49.194953 C30.6061588,44.8923943 27.1252514,42.6508277 19.5574253,38.1887389" id="Fill-1" fill="#BDE264"></path>
                    <path d="M23.348518,32.5990104 C23.6380832,33.6868695 24.1450775,34.6549112 24.8075728,35.4783577 C26.6953611,37.8326136 29.8553989,38.9873394 32.9637164,38.1642324 C33.2505595,38.0875222 33.522431,37.9962167 33.7912401,37.8913342 C33.9501437,37.8295587 34.1056446,37.7599765 34.2580832,37.689376 C35.420087,37.151047 36.4003894,36.3516997 37.1540756,35.3792454 C38.5981588,33.5130836 39.1932817,31.0257728 38.5399735,28.5727441 C37.4252665,24.3876266 33.1205784,21.8965822 28.9257958,23.008201 C24.7303327,24.121517 22.2334707,28.4132141 23.348518,32.5990104" id="Fill-3" fill="#BDE264"></path>
                    <g id="Group-7" transform="translate(0.000000, 10.517781)">
                        <mask id="mask-2" fill="white">
                            <use xlink:href="#path-1"></use>
                        </mask>
                        <g id="Clip-6"></g>
                        <path d="M87.8598715,63.2657389 C88.9272817,63.233154 89.8119698,64.0868094 89.8351078,65.1505692 C89.8619887,66.2184021 89.0198336,67.1043029 87.9493611,67.1277232 C86.8748053,67.1508042 85.9884159,66.3022402 85.9659584,65.2384804 C85.9373762,64.1709869 86.7866767,63.290517 87.8598715,63.2657389 M98.6564688,63.2939112 C98.2474707,57.5053473 95.2528015,47.3538068 90.2689452,47.462423 C85.2799849,47.5768094 82.0566578,63.9425535 81.8463743,66.7122663 C81.6286049,69.4758695 84.7797958,76.6469138 84.5252779,80.6188721 L84.5429716,80.6144595 C84.1816106,95.5804125 75.0026314,104.33318 60.0425558,98.6888721 C51.6928015,95.5383238 43.516242,88.8411175 36.7813837,80.3928146 L36.0191909,79.4145901 C26.4152212,66.9749817 19.9386238,51.0114569 20.4701172,36.982658 C20.535448,35.224094 20.7134064,33.5907781 20.9937845,32.0796554 L16.2494745,25.328141 L22.0683403,28.0914047 C22.4878866,26.9505953 22.9802495,25.9078799 23.5413459,24.9615614 C23.5413459,24.9615614 19.490155,18.8430757 24.1579055,14.1871749 C29.7882647,8.56968146 35.4499282,12.6828407 35.4499282,12.6828407 C35.6935577,12.4387937 37.2036522,11.0152428 37.2036522,11.0152428 L33.6142004,2.23226632 L39.1179811,5.93234465 L40.4405898,4.29461619 C20.7293989,-4.91773368 2.71000378,0.492031332 0.284937618,25.2235979 C-3.37733081,62.5475144 28.8777164,109.250778 61.2709112,118.171561 C85.3255803,124.797149 97.1647486,105.356888 93.2714405,79.4030496 C93.2176786,79.0435979 93.1526881,78.6810914 93.0924612,78.3199426 C97.8000227,75.6350862 99.0331418,68.6279843 98.6564688,63.2939112" id="Fill-5" fill="#003E51" mask="url(#mask-2)"></path>
                    </g>
                    <path d="M119.54256,42.0210574 L117.13825,42.0210574 L116.925244,40.5031462 C115.967399,41.8462533 114.327664,42.3116057 113.042144,42.3116057 C108.828306,42.3116057 106.097342,39.1009791 106.097342,35.0733551 C106.097342,31.0464099 108.828306,27.8351044 113.042144,27.8351044 C115.928609,27.8351044 119.010045,29.3720235 119.341463,32.8565666 L115.928609,32.8565666 C115.806113,31.620718 114.589327,30.8712663 113.067664,30.8712663 C110.631028,30.8712663 109.698363,33.0184726 109.698363,35.1633029 C109.698363,37.3108486 110.631028,39.457376 113.067664,39.457376 C114.935036,39.457376 116.193335,38.5857311 116.396813,37.2690992 L113.75806,37.2690992 L113.75806,34.5536945 L119.54256,34.5536945 L119.54256,42.0210574 Z" id="Fill-8" fill="#003E51"></path>
                    <mask id="mask-4" fill="white">
                        <use xlink:href="#path-3"></use>
                    </mask>
                    <g id="Clip-11"></g>
                    <polygon id="Fill-10" fill="#003E51" mask="url(#mask-4)" points="121.92431 42.3603133 123.625633 42.3603133 123.625633 28.4438642 121.92431 28.4438642"></polygon>
                    <path d="M130.535013,41.0365875 C132.277509,41.0365875 133.685864,39.6717572 133.685864,37.2302689 C133.685864,34.7711305 132.277509,33.4046031 130.535013,33.4046031 C128.793198,33.4046031 127.383822,34.7711305 127.383822,37.2302689 C127.383822,39.6717572 128.793198,41.0365875 130.535013,41.0365875 M130.535013,31.9406606 C133.744049,31.9406606 135.447754,34.2623316 135.447754,37.2302689 C135.447754,40.178859 133.744049,42.5025666 130.535013,42.5025666 C127.325977,42.5025666 125.622272,40.178859 125.622272,37.2302689 C125.622272,34.2623316 127.325977,31.9406606 130.535013,31.9406606" id="Fill-12" fill="#003E51" mask="url(#mask-4)"></path>
                    <path d="M142.157841,33.4044674 C139.925365,33.4044674 139.064836,35.3184883 139.064836,37.2111253 C139.064836,39.2028747 139.964836,41.0364517 142.254136,41.0364517 C144.525062,41.0364517 145.287936,39.105799 145.287936,37.132718 C145.287936,35.2397415 144.309675,33.4044674 142.157841,33.4044674 Z M137.576518,28.4441018 L139.277841,28.4441018 L139.277841,33.5354856 L139.317312,33.5354856 C139.871943,32.4109687 141.178219,31.9174439 142.583853,31.9174439 C145.733002,31.9174439 147.297198,34.405094 147.297198,37.2898721 C147.297198,40.1732924 145.752057,42.6035796 142.622983,42.6035796 C141.574287,42.6035796 140.069977,42.2078094 139.317312,41.0028486 L139.277841,41.0028486 L139.277841,42.3605509 L137.576518,42.3605509 L137.576518,28.4441018 Z" id="Fill-13" fill="#003E51" mask="url(#mask-4)"></path>
                    <path d="M155.270348,37.0549556 C154.624526,37.5237023 153.371671,37.5427102 152.256284,37.7388982 C151.15893,37.9337285 150.22048,38.3244073 150.22048,39.5538068 C150.22048,40.6477755 151.15893,41.0364178 152.177682,41.0364178 C154.369667,41.0364178 155.270348,39.6719269 155.270348,38.7531018 L155.270348,37.0549556 Z M157.992465,42.1419269 C157.70256,42.3174099 157.336435,42.4168616 156.817871,42.4168616 C155.970953,42.4168616 155.430953,41.947436 155.430953,40.8534674 C154.525849,41.9287676 153.312805,42.4168616 151.926227,42.4168616 C150.116699,42.4168616 148.633486,41.5947728 148.633486,39.5860522 C148.633486,37.3006997 150.309629,36.8126057 152.003807,36.4809869 C153.814355,36.1300209 155.353713,36.2464439 155.353713,34.9976971 C155.353713,33.5534413 154.18014,33.3185587 153.13927,33.3185587 C151.753032,33.3185587 150.732238,33.7475927 150.655338,35.2325796 L149.018665,35.2325796 C149.115641,32.733389 151.020783,31.8546162 153.235905,31.8546162 C155.026378,31.8546162 156.971671,32.2646423 156.971671,34.6263655 L156.971671,39.8185587 C156.971671,40.5999164 156.971671,40.9505431 157.491936,40.9505431 C157.626,40.9505431 157.781501,40.9318747 157.992465,40.8534674 L157.992465,42.1419269 Z" id="Fill-14" fill="#003E51" mask="url(#mask-4)"></path>
                    <polygon id="Fill-15" fill="#003E51" mask="url(#mask-4)" points="159.693686 42.3603133 161.395009 42.3603133 161.395009 28.4438642 159.693686 28.4438642"></polygon>
                    <path d="M111.225675,75.9636162 L114.314257,75.9636162 L112.808586,71.211658 L112.770476,71.211658 L111.225675,75.9636162 Z M110.953463,67.4779765 L114.647036,67.4779765 L119.862272,81.3944256 L115.914181,81.3944256 L115.096866,79.0184465 L110.462802,79.0184465 L109.62575,81.3944256 L105.736866,81.3944256 L110.953463,67.4779765 Z" id="Fill-16" fill="#003E51" mask="url(#mask-4)"></path>
                    <path d="M121.584147,72.9087859 L119.882824,72.9087859 L119.882824,71.211658 L121.584147,71.211658 L121.584147,69.708342 C121.584147,68.0682376 122.528382,67.2091514 124.28687,67.2091514 C124.590045,67.2091514 125.024904,67.2682115 125.327059,67.3649478 L125.327059,68.8434856 C125.056548,68.7542167 124.731595,68.7168799 124.460064,68.7168799 C123.719648,68.7168799 123.285471,68.951423 123.285471,69.7619713 L123.285471,71.211658 L125.327059,71.211658 L125.327059,72.9087859 L123.285471,72.9087859 L123.285471,81.3944256 L121.584147,81.3944256 L121.584147,72.9087859 Z" id="Fill-17" fill="#003E51" mask="url(#mask-4)"></path>
                    <path d="M127.028382,72.9087859 L125.327059,72.9087859 L125.327059,71.211658 L127.028382,71.211658 L127.028382,69.708342 C127.028382,68.0682376 128.059384,67.2091514 129.977796,67.2091514 C130.306151,67.2091514 130.781501,67.2682115 131.111558,67.3649478 L131.111558,68.7776371 C130.795452,68.673094 130.415376,68.6303264 130.099611,68.6303264 C129.234658,68.6303264 128.729705,68.903564 128.729705,69.8488642 L128.729705,71.211658 L130.771293,71.211658 L130.771293,72.9087859 L128.729705,72.9087859 L128.729705,81.3944256 L127.028382,81.3944256 L127.028382,72.9087859 Z" id="Fill-18" fill="#003E51" mask="url(#mask-4)"></path>
                    <path d="M138.257115,76.0915457 C137.611293,76.5613107 136.357078,76.5793003 135.243051,76.7765065 C134.146378,76.9713368 133.207248,77.3609974 133.207248,78.5910757 C133.207248,79.684705 134.146378,80.0740261 135.16411,80.0740261 C137.357115,80.0740261 138.257115,78.7095352 138.257115,77.7903708 L138.257115,76.0915457 Z M140.979233,81.1754621 C140.689667,81.3506057 140.323883,81.4500574 139.804979,81.4500574 C138.95738,81.4500574 138.418741,80.9806319 138.418741,79.8866632 C137.513977,80.9619634 136.301274,81.4500574 134.915036,81.4500574 C133.105849,81.4500574 131.622975,80.6283081 131.622975,78.6199269 C131.622975,76.3338956 133.298439,75.846141 134.992276,75.5145222 C136.802484,75.164235 138.341161,75.2799791 138.341161,74.0312324 C138.341161,72.5862977 137.167928,72.3517546 136.127739,72.3517546 C134.742181,72.3517546 133.721388,72.7814674 133.644828,74.2664543 L132.008495,74.2664543 C132.10513,71.7669243 134.009592,70.8881514 136.223694,70.8881514 C138.014166,70.8881514 139.958439,71.2978381 139.958439,73.6595614 L139.958439,78.8517546 C139.958439,79.6337911 139.958439,79.9844178 140.477002,79.9844178 C140.613448,79.9844178 140.766227,79.9654099 140.979233,79.8866632 L140.979233,81.1754621 Z" id="Fill-19" fill="#003E51" mask="url(#mask-4)"></path>
                    <path d="M142.680454,81.3942559 L144.381777,81.3942559 L144.381777,71.2114883 L142.680454,71.2114883 L142.680454,81.3942559 Z M142.680454,69.5143603 L144.381777,69.5143603 L144.381777,67.4778068 L142.680454,67.4778068 L142.680454,69.5143603 Z" id="Fill-20" fill="#003E51" mask="url(#mask-4)"></path>
                    <path d="M147.103996,71.211658 L148.465055,71.211658 L148.465055,73.2482115 L148.750537,73.2482115 C149.496397,71.628812 150.534544,70.828107 152.207966,70.8868277 L152.207966,72.6426762 C149.715187,72.6426762 148.805319,74.1653394 148.805319,76.7239295 L148.805319,81.3944256 L147.103996,81.3944256 L147.103996,71.211658 Z" id="Fill-21" fill="#003E51" mask="url(#mask-4)"></path>
                    <path d="M154.484132,78.0001697 C154.54572,79.5187598 155.865267,79.9963316 157.267157,79.9963316 C158.328102,79.9963316 159.768442,79.7577154 159.768442,78.459752 C159.768442,77.1410836 158.086854,76.9214752 156.386212,76.5430157 C154.704284,76.1631984 153.00262,75.6041645 153.00262,73.6263316 C153.00262,71.5507441 155.065645,70.6926762 156.865645,70.6926762 C159.1478,70.6926762 160.969917,71.4105614 161.110106,73.9270627 L159.407422,73.9270627 C159.287989,72.6090731 158.128026,72.1898825 157.006854,72.1898825 C155.986741,72.1898825 154.804662,72.4685509 154.804662,73.5085509 C154.804662,74.7260705 156.606363,74.9249739 158.187573,75.3051305 C159.889236,75.6839295 161.571845,76.2429634 161.571845,78.2391253 C161.571845,80.6958877 159.268594,81.4948956 157.167459,81.4948956 C154.845493,81.4948956 152.881146,80.555705 152.782129,78.0001697 L154.484132,78.0001697 Z" id="Fill-22" fill="#003E51" mask="url(#mask-4)"></path>
                    <polygon id="Fill-23" fill="#003E51" mask="url(#mask-4)" points="104.91118 47.7912924 110.29893 47.7912924 112.717531 56.9557833 112.755981 56.9557833 115.175603 47.7912924 120.563353 47.7912924 120.563353 61.7077415 117.160707 61.7077415 117.160707 51.1855483 116.950083 51.1855483 114.033675 61.7077415 111.271066 61.7077415 108.353977 51.1855483 108.313826 51.1855483 108.313826 61.7077415 104.91118 61.7077415"></polygon>
                    <path d="M129.940877,55.5980809 C129.883032,54.4657572 129.079667,53.5279243 127.96428,53.5279243 C126.790026,53.5279243 126.007078,54.3686815 125.811425,55.5980809 L129.940877,55.5980809 Z M125.811425,57.2952089 C125.870631,58.9156266 126.672295,59.8347911 128.082352,59.8347911 C128.884696,59.8347911 129.666284,59.4631201 129.980348,58.6529112 L133.091728,58.6529112 C132.485036,61.0641906 130.313807,62.0780548 128.042881,62.0780548 C124.734828,62.0780548 122.484658,60.088342 122.484658,56.6917102 C122.484658,53.5863055 124.969951,51.3600131 127.96428,51.3600131 C131.604091,51.3600131 133.424166,54.0934073 133.266624,57.2952089 L125.811425,57.2952089 Z" id="Fill-24" fill="#003E51" mask="url(#mask-4)"></path>
                    <path d="M137.767985,56.6133708 C137.767985,57.9992454 138.275319,59.5412559 139.802427,59.5412559 C141.427191,59.5412559 141.779365,57.9992454 141.779365,56.7104465 C141.779365,55.2468433 141.250934,53.8993238 139.802427,53.8993238 C138.275319,53.8993238 137.767985,55.3249112 137.767985,56.6133708 Z M145.062238,61.7078094 L141.659932,61.7078094 L141.659932,60.6895326 L141.779365,60.6895326 C141.133202,61.5710209 140.155962,62.0784621 138.981369,62.0784621 C135.791047,62.0784621 134.441217,59.3447285 134.441217,56.4952507 C134.441217,53.8589321 135.849233,51.3597415 138.72651,51.3597415 C139.979705,51.3597415 140.938231,51.8291671 141.621822,52.8827441 L142.000197,52.8827441 L142.000197,47.7913603 L145.062238,47.7913603 L145.062238,61.7078094 Z" id="Fill-25" fill="#003E51" mask="url(#mask-4)"></path>
                    <path d="M159.651902,55.2586554 C159.633527,54.420953 158.890389,53.8327285 158.070011,53.8327285 C156.259123,53.8327285 155.973301,55.3737206 155.973301,56.7419452 C155.973301,58.01547 156.526231,59.3280287 157.899198,59.3280287 C159.023433,59.3280287 159.595418,58.681423 159.746495,57.6346345 L162.891221,57.6346345 C162.606079,60.2787598 160.548499,61.799047 157.917233,61.799047 C154.945361,61.799047 152.733301,59.7638512 152.733301,56.7419452 C152.733301,53.604295 154.733376,51.3596736 157.917233,51.3596736 C160.377006,51.3596736 162.56831,52.6539034 162.797308,55.2586554 L159.651902,55.2586554 Z" id="Fill-26" fill="#003E51" mask="url(#mask-4)"></path>
                    <path d="M168.859667,60.0291802 C170.443599,60.0291802 170.97203,59.1310601 170.89411,57.042235 C170.425225,57.3358381 169.562654,57.3928616 168.838911,57.589389 C168.095433,57.7648721 167.469006,58.077483 167.469006,58.8778486 C167.469006,59.6972219 168.114147,60.0291802 168.859667,60.0291802 Z M164.271879,54.5797023 C164.330405,53.2287885 164.968401,52.3564648 165.883032,51.8194935 C166.799705,51.3035666 167.993013,51.1036449 169.167267,51.1036449 C171.616832,51.1036449 173.985074,51.641295 173.985074,54.5600157 L173.985074,59.0669086 C173.985074,59.9395718 173.985074,60.8933577 174.382843,61.7076397 L170.978836,61.7076397 C170.859403,61.3899373 170.820612,61.0715561 170.780802,60.7341671 C169.903259,61.6479008 168.610253,62.0042977 167.375773,62.0042977 C165.405641,62.0042977 163.853694,61.0114778 163.853694,58.8866736 C163.853694,55.5314517 167.516302,55.7914517 169.864129,55.3138799 C170.441217,55.1940627 170.759365,54.996517 170.759365,54.3604334 C170.759365,53.5872219 169.824318,53.2888668 169.127115,53.2888668 C168.192068,53.2888668 167.595584,53.705342 167.435319,54.5797023 L164.271879,54.5797023 Z" id="Fill-27" fill="#003E51" mask="url(#mask-4)"></path>
                    <polygon id="Fill-28" fill="#003E51" mask="url(#mask-4)" points="176.366654 61.7075718 179.769301 61.7075718 179.769301 47.7911227 176.366654 47.7911227"></polygon>
                    <path d="M146.336393,50.1304778 C146.247924,50.0408695 146.160136,49.9536371 146.069966,49.8636893 C146.1142,49.9672141 146.163198,50.0792245 146.211516,50.193611 C147.293558,52.736248 149.09662,57.8792245 148.294276,62.5201906 C150.299115,59.7735587 151.729588,54.9112872 152.085505,51.5872924 C152.10524,51.3849948 152.124975,51.1864308 152.139607,50.9980496 C151.235183,51.8920966 150.83265,52.2637676 149.784295,53.6740809 C148.411667,52.2807389 147.765164,51.573376 146.336393,50.1304778" id="Fill-29" fill="#003E51" mask="url(#mask-4)"></path>
                    <path d="M147.515682,49.1032402 C147.515682,49.3645979 147.572507,49.610342 147.671864,49.8336841 C147.954964,50.4697676 148.593301,50.9161123 149.337459,50.9140757 C149.406873,50.9140757 149.472544,50.910342 149.538216,50.9008381 C149.575985,50.8988016 149.617157,50.8913342 149.654246,50.8835274 C149.945512,50.8322742 150.21296,50.7100809 150.438216,50.538671 C150.871713,50.2050157 151.154132,49.6846762 151.153112,49.0957728 C151.15141,48.0948068 150.335796,47.2845979 149.330994,47.2869739 C148.327894,47.288671 147.513641,48.1026136 147.515682,49.1032402" id="Fill-30" fill="#003E51" mask="url(#mask-4)"></path>
                    <path d="M45.8568204,41.0090601 C50.4241928,55.7004178 53.6478601,73.4914099 50.4313384,89.8883812 C57.9705822,81.5425849 64.103172,68.0147781 68.2584839,54.1431332 C68.9556862,51.8119582 69.5977656,49.4692428 70.182,47.1418016 C72.7700529,36.8202089 74.2086919,26.7626893 74.247482,18.9789817 C67.9900151,25.9830287 64.4590888,30.7475457 59.6736068,38.4881462 C54.6570851,30.3853786 46.6057429,23.8042559 35.0731531,14.2752219 C37.0055161,18.1402611 39.7429452,24.0024804 42.4405633,31.1161619 C43.6083516,34.1974674 44.7696749,37.5133159 45.8568204,41.0090601" id="Fill-31" fill="#5FCAD7" mask="url(#mask-4)"></path>
                    <path d="M56.7972817,21.9288277 C56.9432552,21.9210209 57.0824234,21.8972611 57.2304386,21.8840235 C57.32231,21.877235 57.4189452,21.8687493 57.5166011,21.8582272 C63.2272628,21.2262167 67.5465822,16.2777311 67.2811758,10.4677833 C67.0038601,4.41718277 61.8604197,-0.264853786 55.7938412,0.0114386423 C49.726242,0.286712794 45.0305898,5.41679112 45.3089263,11.4684099 C45.5872628,17.5220653 50.7300227,22.2037624 56.7972817,21.9288277" id="Fill-32" fill="#5FCAD7" mask="url(#mask-4)"></path>
                    <path d="M55.2164121,48.2281671 C54.8339546,47.8201775 54.4518374,47.4152428 54.0506654,47.0103081 C54.2405331,47.478376 54.4416295,47.9756345 54.6485104,48.4912219 C59.2135009,60.0262611 66.6840113,83.3176449 62.5392476,104.04976 C71.854673,91.954329 78.8511947,70.3027102 80.8318752,55.4436762 C80.9530095,54.5377493 81.0635955,53.6487937 81.1462798,52.7971749 C76.9879055,56.7076971 75.1276786,58.3260783 70.2748242,64.5226319 C64.2708544,58.120047 61.455845,54.8741201 55.2164121,48.2281671" id="Fill-33" fill="#F34F80" mask="url(#mask-4)"></path>
                    <path d="M60.6257694,43.758611 C60.5985482,44.9289504 60.8234631,46.0402298 61.2409679,47.054094 C62.4356371,49.9476971 65.2496257,52.0161567 68.5859206,52.0979582 C68.8928393,52.1054256 69.1919319,52.0938851 69.490344,52.0674099 C69.6672817,52.0517963 69.8431985,52.0280366 70.0153724,52.0005431 C71.3315161,51.8013003 72.5414972,51.2894465 73.576242,50.5372794 C75.5599849,49.0994726 76.8788507,46.7930757 76.9458828,44.1587937 C77.054087,39.662423 73.4908355,35.9290809 68.9847108,35.8194465 C64.4779055,35.7118486 60.738397,39.2642768 60.6257694,43.758611" id="Fill-34" fill="#F34F80" mask="url(#mask-4)"></path>
                </g>
            </g>
        </g>
    </g>
</svg>