<?xml version="1.0" encoding="UTF-8"?>
<svg width="144px" height="145px" viewBox="0 0 144 145" version="1.1" xmlns="http://www.w3.org/2000/svg" xmlns:xlink="http://www.w3.org/1999/xlink">
    <!-- Generator: Sketch 52.4 (67378) - http://www.bohemiancoding.com/sketch -->
    <title>push-pin</title>
    <desc>Created with Sketch.</desc>
    <g id="Symbols" stroke="none" stroke-width="1" fill="none" fill-rule="evenodd">
        <g id="push-pin-link" fill="#26b5c4" fill-rule="nonzero">
            <g id="push-pin">
                <path d="M0.081,144.593 L35.598,87.366 C38.581,91.3 41.921,95.193 45.7,98.972 C49.437,102.712 53.328,106.086 57.288,109.09 L0.081,144.593 Z" id="Path"></path>
                <path d="M140.641,51.074 C136.862,54.855 130.456,55.226 123.339,52.804 L104.312,71.825 C113.875,87.361 116.152,102.489 108.687,109.961 C105.665,112.983 101.389,114.412 96.339,114.412 C87.041,114.412 75.118,109.546 63.577,100.827 C63.32,100.635 63.066,100.433 62.812,100.233 C61.99,99.6 61.17,98.947 60.353,98.272 C60.029,98.005 59.707,97.738 59.383,97.465 C58.605,96.806 57.832,96.127 57.062,95.434 C56.759,95.162 56.453,94.895 56.149,94.617 C55.101,93.652 54.061,92.664 53.034,91.637 C51.862,90.465 50.739,89.277 49.652,88.079 C48.978,87.337 48.345,86.588 47.702,85.838 C47.352,85.428 46.989,85.021 46.646,84.606 C45.813,83.605 45.025,82.599 44.252,81.59 C44.156,81.463 44.057,81.338 43.964,81.214 C30.433,63.362 26.107,44.587 34.713,35.982 C37.735,32.96 42.011,31.531 47.061,31.531 C54.497,31.531 63.605,34.646 72.859,40.344 L91.873,21.333 C89.451,14.214 89.824,7.81 93.608,4.031 C100.691,-3.057 116.968,1.728 129.954,14.717 C142.946,27.706 147.731,43.983 140.641,51.074 Z" id="Path"></path>
            </g>
        </g>
    </g>
</svg>